<svg xmlns="http://www.w3.org/2000/svg" viewBox="0 0 64 64">
  <circle cx="32" cy="32" r="32" fill="#7E57C2"/>
  <path d="M32 55C21 47 9 38.5 9 26.5 9 18.5 15 13 22 13c4.3 0 8 2.2 10 5.6C34 15.2 37.7 13 42 13c7 0 13 5.5 13 13.5 0 5.6-2.6 10.3-6.2 14.4"
    fill="none" stroke="#fff" stroke-width="4" stroke-linecap="round"/>
  <path d="M22 20v9.5a7.5 7.5 0 0 0 15 0V20"
    fill="none" stroke="#fff" stroke-width="4" stroke-linecap="round"/>
  <path d="M29.5 37v3.5a8.5 8.5 0 0 0 8.5 8.5 5.5 5.5 0 0 0 5.5-5.5v-2"
    fill="none" stroke="#fff" stroke-width="4" stroke-linecap="round"/>
  <circle cx="43.5" cy="39" r="4.2" fill="none" stroke="#fff" stroke-width="4"/>
  <path d="M31 25h-4.5v4.5h-4V34H18v-4.5h-4.5V25H18v-4.5h4.5V25z" transform="translate(11 3)" fill="#F8BBD0"/>
</svg>
